<?xml version="1.0" encoding="UTF-8" standalone="no"?>
<svg xmlns="http://www.w3.org/2000/svg" xmlns:xlink="http://www.w3.org/1999/xlink" width="48" height="48" version="1.0">
  <defs>
    <linearGradient id="f">
      <stop offset="0" stop-opacity="0"/>
      <stop offset=".5"/>
      <stop offset="1" stop-opacity="0"/>
    </linearGradient>
    <linearGradient id="h">
      <stop offset="0"/>
      <stop offset="1" stop-opacity="0"/>
    </linearGradient>
    <linearGradient id="e">
      <stop offset="0" stop-color="#fff"/>
      <stop offset="1" stop-color="#fff" stop-opacity="0"/>
    </linearGradient>
    <linearGradient id="g">
      <stop offset="0" stop-color="#babdb6"/>
      <stop offset="1" stop-color="#888a85"/>
    </linearGradient>
    <linearGradient id="d">
      <stop offset="0" stop-color="#fff"/>
      <stop offset="1" stop-color="#fff" stop-opacity="0"/>
    </linearGradient>
    <linearGradient id="c">
      <stop offset="0" stop-color="#888a85"/>
      <stop offset="1" stop-color="#babdb6"/>
    </linearGradient>
    <linearGradient id="b">
      <stop offset="0" stop-color="#fff"/>
      <stop offset="1" stop-color="#fff" stop-opacity="0"/>
    </linearGradient>
    <linearGradient id="a">
      <stop offset="0" stop-color="#2e3436"/>
      <stop offset="1" stop-color="#555753"/>
    </linearGradient>
    <linearGradient xlink:href="#a" id="m" x1="8.125" x2="8.125" y1="18.625" y2="1.5623856" gradientUnits="userSpaceOnUse"/>
    <linearGradient xlink:href="#b" id="o" x1="10.375" x2="10.25" y1="11.0625" y2="5.6206751" gradientTransform="translate(0 1)" gradientUnits="userSpaceOnUse"/>
    <linearGradient xlink:href="#c" id="l" x1="11.579321" x2="35.079323" y1="21.053846" y2="52.56406" gradientUnits="userSpaceOnUse"/>
    <linearGradient xlink:href="#d" id="q" x1="14.49791" x2="15.223973" y1="20.819609" y2="22.249367" gradientUnits="userSpaceOnUse"/>
    <linearGradient xlink:href="#d" id="r" x1="14.49791" x2="15.005223" y1="20.819609" y2="21.905617" gradientTransform="translate(-6)" gradientUnits="userSpaceOnUse"/>
    <linearGradient xlink:href="#d" id="w" x1="14.49791" x2="14.911473" y1="20.819609" y2="22.593117" gradientTransform="translate(-.999989 .0000043)" gradientUnits="userSpaceOnUse"/>
    <linearGradient xlink:href="#d" id="y" x1="14.49791" x2="17.692724" y1="20.819609" y2="24.905617" gradientTransform="translate(-.999989 .0000043)" gradientUnits="userSpaceOnUse"/>
    <linearGradient xlink:href="#d" id="z" x1="14.49791" x2="15.223973" y1="20.819609" y2="22.249367" gradientUnits="userSpaceOnUse"/>
    <linearGradient xlink:href="#e" id="n" x1="7.625" x2="9.1875" y1="4.9375" y2="22.625" gradientUnits="userSpaceOnUse"/>
    <linearGradient xlink:href="#f" id="k" x1="11.507806" x2="11.507806" y1="39" y2="47.015659" gradientUnits="userSpaceOnUse"/>
    <radialGradient xlink:href="#g" id="p" cx="15.902422" cy="21.731947" r="2.9999985" fx="15.902422" fy="21.731947" gradientTransform="matrix(1.9597 0 0 1.65785 -14.97639 -13.84084)" gradientUnits="userSpaceOnUse"/>
    <radialGradient xlink:href="#h" id="i" cx="3" cy="43" r="2" fx="3" fy="43" gradientTransform="matrix(2 0 0 2 -13 -129)" gradientUnits="userSpaceOnUse"/>
    <radialGradient xlink:href="#h" id="j" cx="3" cy="43" r="2" fx="3" fy="43" gradientTransform="matrix(2 0 0 2 35 -43)" gradientUnits="userSpaceOnUse"/>
  </defs>
  <g color="#000" opacity=".4">
    <path fill="url(#i)" d="M-7-47h4v8h-4z" opacity="1" overflow="visible" style="marker:none" transform="matrix(-1 0 0 -1.11807 0 -5.549194)"/>
    <path fill="url(#j)" d="M41 39h4v8h-4z" opacity="1" overflow="visible" style="marker:none" transform="matrix(1 0 0 1.11807 0 -5.549194)"/>
    <path fill="url(#k)" d="M7 39h34v8H7z" opacity="1" overflow="visible" style="marker:none" transform="matrix(1 0 0 1.11807 0 -5.549194)"/>
  </g>
  <rect width="37" height="36.459362" x="5.5" y="8.0407381" fill="url(#l)" stroke="#555753" stroke-dashoffset="1.4" stroke-linecap="round" stroke-miterlimit="6" stroke-width="1.00000024" color="#000" overflow="visible" rx="2.875" ry="2.875" style="marker:none"/>
  <rect width="35.000004" height="41.000008" x="6.5" y="2.4999993" fill="none" stroke="#fff" stroke-dashoffset="1.4" stroke-linecap="round" stroke-miterlimit="6" color="#000" opacity=".3" overflow="visible" rx="1.9236857" ry="1.9236857" style="marker:none"/>
  <path fill="url(#m)" stroke="#2e3436" stroke-dashoffset="1.4" stroke-linecap="round" stroke-miterlimit="6" stroke-width="1.00000024" d="M42.5 17V4.375c0-1.59275-1.28225-2.875-2.875-2.875H8.375C6.78225 1.5 5.5 2.7822502 5.5 4.375V17" color="#000" overflow="visible" style="marker:none"/>
  <rect width="32" height="9" x="8" y="7" fill="#8ae234" color="#000" overflow="visible" rx="1.1762378" ry="1.1762378" style="marker:none"/>
  <path fill="none" stroke="url(#n)" stroke-dashoffset="1.4" stroke-linecap="square" stroke-miterlimit="6" stroke-width="1.00000036" d="M41.500004 16.510137V4.3478739c0-1.0495514-.797965-1.8478726-1.847049-1.8478726H8.3470491c-1.0490833 0-1.8470485.7983215-1.8470485 1.8478726V16.510137" color="#000" opacity=".2" overflow="visible" style="marker:none"/>
  <path fill="#fff" d="M13 9h22v5H13z" color="#000" opacity=".6" overflow="visible" style="marker:none"/>
  <path d="M13 9v5h.5V9.5H35V9H13z" color="#000" opacity=".3" overflow="visible" style="marker:none"/>
  <path fill="url(#o)" d="M9.1875 7C8.5358642 7 8 7.535864 8 8.1875v5.03125c11.702209-4.660713 24.206019-2.226938 32 1.3125V8.1875C40 7.5358642 39.464137 7 38.8125 7H9.1875z" color="#000" opacity=".4" overflow="visible" style="marker:none"/>
  <g id="v" stroke-dashoffset="1.4" stroke-linecap="square" stroke-miterlimit="6" color="#000" transform="translate(.00000489 .00000417)">
    <rect width="4.9999967" height="3.9999957" x="13.499995" y="19.5" fill="url(#p)" stroke="#555753" stroke-width="1.00000024" overflow="visible" rx="1.046875" ry="1.046875" style="marker:none"/>
    <rect width="3.0000131" height="2.0000167" x="14.499989" y="20.499979" fill="none" stroke="url(#q)" stroke-linejoin="round" opacity=".4" overflow="visible" rx="0" ry="0" style="marker:none"/>
  </g>
  <g id="s" stroke-dashoffset="1.4" stroke-linecap="square" stroke-miterlimit="6" color="#000">
    <rect width="4.0000024" height="3.9999957" x="7.500001" y="19.500013" fill="#555753" stroke="#2e3436" stroke-width="1.0000006" overflow="visible" rx="1.016466" ry="1.016466" style="marker:none"/>
    <rect width="2.0000114" height="2.000021" x="8.4999886" y="20.499979" fill="none" stroke="url(#r)" stroke-linejoin="round" opacity=".3" overflow="visible" rx="0" ry="0" style="marker:none"/>
  </g>
  <use xlink:href="#s" id="t" width="48" height="48" x="0" y="0" transform="translate(0 6)"/>
  <use xlink:href="#t" id="u" width="48" height="48" x="0" y="0" transform="translate(0 6)"/>
  <use xlink:href="#u" width="48" height="48" transform="translate(0 6)"/>
  <use xlink:href="#v" width="48" height="48" transform="translate(-.00000489 5.999996)"/>
  <use xlink:href="#v" width="48" height="48" transform="translate(-.00000489 12)"/>
  <use xlink:href="#v" width="48" height="48" transform="translate(6.999995 -.00000417)"/>
  <use xlink:href="#v" width="48" height="48" transform="translate(6.999995 5.999996)"/>
  <use xlink:href="#v" width="48" height="48" transform="translate(6.999995 12)"/>
  <use xlink:href="#v" width="48" height="48" transform="translate(6.999995 18)"/>
  <use xlink:href="#v" width="48" height="48" transform="translate(14 -.00000417)"/>
  <use xlink:href="#v" width="48" height="48" transform="translate(14 12)"/>
  <use xlink:href="#v" width="48" height="48" transform="translate(14 5.999996)"/>
  <g id="x" stroke-dashoffset="1.4" stroke-linecap="square" stroke-miterlimit="6" color="#000" transform="translate(22)">
    <rect width="5.9999919" height="3.9999957" x="12.5" y="19.5" fill="#888a85" stroke="#555753" stroke-width="1.00000024" overflow="visible" rx="1.046875" ry="1.046875" style="marker:none"/>
    <rect width="4" height="2.0000172" x="13.5" y="20.499983" fill="none" stroke="url(#w)" stroke-linejoin="round" opacity=".4" overflow="visible" rx="0" ry="0" style="marker:none"/>
  </g>
  <use xlink:href="#x" width="48" height="48" transform="translate(0 6)"/>
  <g stroke-dashoffset="1.4" stroke-linecap="square" stroke-miterlimit="6" color="#000" transform="translate(22 12)">
    <rect width="6" height="10" x="12.5" y="19.5" fill="#888a85" stroke="#555753" stroke-width="1.00000024" overflow="visible" rx="1.046875" ry="1.046875" style="marker:none"/>
    <rect width="4" height="8.0000172" x="13.5" y="20.499983" fill="none" stroke="url(#y)" stroke-linejoin="round" opacity=".4" overflow="visible" rx="0" ry="0" style="marker:none"/>
  </g>
  <use xlink:href="#v" width="48" height="48" transform="translate(-.00000489 18)"/>
  <g stroke-dashoffset="1.4" stroke-linecap="square" stroke-miterlimit="6" color="#000" transform="translate(14 18)">
    <rect width="4.9999967" height="3.9999957" x="13.499995" y="19.5" fill="#888a85" stroke="#555753" stroke-width="1.00000024" overflow="visible" rx="1.046875" ry="1.046875" style="marker:none"/>
    <rect width="3.0000131" height="2.0000167" x="14.499989" y="20.499979" fill="none" stroke="url(#z)" stroke-linejoin="round" opacity=".4" overflow="visible" rx="0" ry="0" style="marker:none"/>
  </g>
  <path fill="#eeeeec" d="M11.39491834 4.10543914v.49659835c-.06864243-.056688-.13775386-.09863798-.20733429-.1258503-.06864242-.02720935-.14010432-.0408148-.21438567-.04081633-.14104505.00000154-.25105872.04988813-.33004282.14965977-.07804428.09864072-.11706596.23696247-.11706596.41496569 0 .17800518.03902168.31689387.11706596.4166664.0789841.09863984.18899777.14795949.33004282.14795916.07898319 3.3e-7.15373627-.01417194.22425926-.04251704.07146007-.02834421.1372803-.0702942.1974607-.1258503v.49829906c-.07898592.03514738-.15938066.06122439-.24118422.07823125-.08086648.01814051-.16220195.02721077-.24400551.02721088-.28490866-1e-7-.50775728-.08786844-.66854676-.26360532-.1607904-.17687022-.24118514-.4223347-.24118423-.7363941-9e-7-.31405742.08039383-.55895496.24118423-.73469338.16078948-.17686867.3836381-.26530395.66854676-.26530592.08274429.00000197.16407885.00907223.2440055.02721088.08086284.01700873.16125758.04308574.24118423.07823125m1.19040772.32993172c-.11189513.00000154-.19746162.04875425-.25669947.14625846-.05829893.09637308-.08744704.2358286-.08744704.418367 0 .18254037.0291481.32256283.08744704.4200678.05923785.0963722.14480434.14455809.25669947.14455776.11001275 3.3e-7.1941686-.04818555.25246845-.14455775.0582962-.09750498.08744522-.23752744.08744704-.42006781-.00000182-.1825384-.02915084-.32199392-.08744704-.418367-.05829985-.09750421-.1424557-.14625692-.25246845-.14625846m0-.43537385c.27174297.00000197.48377818.08843725.63610655.26530592.15326545.17687219.22989909.42176973.22990091.73469339-.00000182.31292563-.07663546.55782317-.22990091.73469338-.15232837.17687065-.36436358.26530592-.63610655.26530603-.27268462-1e-7-.48613047-.08843538-.64033757-.26530603-.15326818-.17687021-.22990182-.42176775-.22990091-.73469338-9.1e-7-.31292366.07663273-.5578212.22990091-.73469339.1542071-.17686867.36765295-.26530395.64033757-.26530592m2.51057535.10544213v.49659835c-.06864243-.056688-.13775386-.09863798-.20733338-.1258503-.06864243-.02720935-.14010523-.0408148-.21438659-.04081633-.14104414.00000154-.25105872.04988813-.3300419.14965977-.0780452.09864072-.11706688.23696247-.11706597.41496569-9.1e-7.17800518.03902077.31689387.11706596.4166664.0789832.09863984.18899777.14795949.33004191.14795916.0789832 3.3e-7.15373628-.01417194.22425926-.04251704.07146098-.02834421.13728122-.0702942.1974607-.1258503v.49829906c-.07898592.03514738-.15938066.06122439-.24118422.07823125-.08086647.01814051-.16220104.02721077-.24400551.02721088-.28490866-1e-7-.50775727-.08786844-.66854676-.26360532-.16078948-.17687022-.24118422-.4223347-.24118422-.7363941 0-.31405742.08039474-.55895496.24118422-.73469338.16078949-.17686867.3836381-.26530395.66854676-.26530592.0827443.00000197.16407977.00907223.24400551.02721088.08086374.01700873.16125848.04308574.24118423.07823125m1.19040771.32993172c-.11189513.00000154-.19746162.04875425-.25669855.14625846-.05829894.09637308-.08744795.2358286-.08744704.418367-9.1e-7.18254037.0291481.32256283.08744704.4200678.05923693.0963722.14480342.14455809.25669855.14455776.11001367 3.3e-7.19416951-.04818555.25246845-.14455775.0582962-.09750498.08744522-.23752744.08744704-.42006781-.00000182-.1825384-.02915083-.32199392-.08744704-.418367-.05829894-.09750421-.14245478-.14625692-.25246845-.14625846m0-.43537385c.27174297.00000197.48377819.08843725.63610655.26530592.15326637.17687219.2299.42176973.22990183.73469339-.00000183.31292563-.07663546.55782317-.22990183.73469338-.15232836.17687065-.36436358.26530592-.63610655.26530603-.27268461-1e-7-.48613047-.08843538-.64033756-.26530603-.15326728-.17687021-.22990092-.42176775-.22990092-.73469338 0-.31292366.07663364-.5578212.22990092-.73469339.1542071-.17686867.36765295-.26530395.64033756-.26530592m1.9421705 1.0935367c-.10531365 8.8e-7-.18476766.02154281-.23836385.0646258-.05265637.04308464-.07898502.10657656-.0789841.1904761-9.2e-7.07709791.02115598.13775546.06346977.18197266.0432527.0430842.10296046.06462613.1791251.0646258.09496833 3.3e-7.17489316-.04081589.23977449-.12244888.0648786-.08276588.0973188-.18594025.09731971-.30952367v-.06972781h-.26234112m.77150812-.22959172v1.08673398h-.509167V5.6683633c-.0677017.11564627-.14386543.2001133-.22849027.25340119-.08462758.05215412-.18758895.07823113-.30888593.07823124-.16361076-1e-7-.29666188-.05725625-.39915333-.17176864-.10155164-.11564593-.15232746-.26530559-.15232655-.4489793-9e-7-.22335505.06346886-.38718698.19040841-.49149622.12787937-.10430715.32816045-.15646128.60084597-.15646248h.2976017v-.04761905c-9.1e-7-.09637045-.0315013-.1666651-.09449934-.21088426-.06300077-.04534987-.1612603-.06802557-.29478133-.06802711-.10813402.00000154-.20874493.01304004-.30183271.03911562-.09308961.02607855-.17959592.06519417-.25952075.11734687V4.0969357c.10813311-.0317441.21673705-.05555357.3258109-.07142852.10907293-.01700478.21814677-.0255082.32722153-.02551018.28490683.00000197.49035966.06802908.6163603.20408154.12693772.13492209.19040658.35487639.1904084.65986344" font-family="Bitstream Vera Sans" font-size="3.17188883" font-weight="700"/>
  <path fill="#fcaf3e" d="M31 4h8v2h-8z" color="#000" opacity=".3" overflow="visible" style="marker:none"/>
  <g fill="#fff" font-family="Arial" font-weight="700">
    <path d="M16.500046 34.000104h-.436339v-.719423c-.159423.065217-.347312.11345-.56367.1447v-.173233c.113872-.016303.23758-.047099.371122-.09239.133541-.045741.225156-.098956.274846-.159645h.354041v.999991" font-size="2.1034534"/>
    <path d="M23.764759 33.822846v.177308h-1.529518c.016562-.067028.066253-.130433.149069-.190215.082817-.060236.246379-.139945.490688-.239129.196689-.080162.317289-.13451.361805-.163042.060041-.039401.090062-.07835.090064-.116847-.000002-.042572-.026399-.07518-.079194-.097825-.051762-.023097-.123709-.034646-.215841-.034647-.091099.000001-.163563.012003-.217393.036005-.053832.024004-.084887.063859-.093169.119565l-.434788-.019022c.025881-.105071.107145-.180478.243793-.226221.136646-.045742.307456-.068613.512426-.068613.22464 0 .401142.026495.529509.079483.128364.052989.192548.118885.192549.197688-.000001.044838-.018635.087636-.055901.128396-.036234.040308-.094207.082654-.173915.127037-.052797.029438-.148037.071784-.285717.127037-.137685.055253-.225159.091938-.262425.110053-.036233.018116-.065737.035779-.088511.052989h.866469" font-size="2.10345578"/>
    <path d="m29.275646 33.73593.422364-.022418c.013457.047101.049689.083106.108698.108016.059005.024909.130435.037363.214288.037363.090062 0 .165631-.014945.22671-.044836.062112-.029891.093167-.070199.093169-.120923-.000002-.048007-.029504-.08605-.08851-.11413-.059008-.028079-.130955-.042119-.215841-.042119-.055903 0-.122673.004756-.200314.014266l.048138-.15557c.118013.00136.208076-.009736.27019-.033288.062111-.024002.093168-.055705.093168-.095108 0-.033513-.022775-.060234-.068323-.080162-.04555-.019926-.106111-.02989-.181679-.029891-.074537.000001-.138202.011323-.190996.033967-.052796.022646-.084887.055707-.096275.099184l-.402177-.029891c.02795-.060234.069875-.108241.125777-.14402.056935-.036231.135612-.064537.236027-.084918.10145-.020833.214805-.031249.340066-.03125.214286.000001.386132.029892.515533.089673.106626.048914.159939.104167.159941.16576-.000002.087409-.109216.157155-.327644.209237.130435.012229.234473.039629.312115.082201.078674.042572.118012.093976.118014.154211-.000002.087409-.072984.16191-.218946.223504-.145967.061593-.327646.09239-.545038.09239-.206007 0-.376816-.025815-.512428-.077445-.135611-.052083-.214288-.120017-.236027-.203803" font-size="2.10345769"/>
    <path d="m30.769506 27.248206-.422366.020381c-.010353-.038043-.037269-.066122-.080746-.084239-.04348-.018115-.0999-.027173-.169257-.027174-.092135.000001-.170293.018116-.234475.054347-.063149.036233-.103004.11164-.119566.226222.108696-.056159.243791-.084238.405283-.084239.182195.000001.337995.030345.467398.091032.130434.060689.195653.13904.195654.235053-.000001.101902-.068326.183649-.204972.245243-.136649.061594-.312117.092391-.526403.092391-.229817 0-.418744-.038949-.566777-.116847-.148036-.078351-.222053-.20652-.222053-.384508 0-.182517.077123-.314083.231369-.394699.154246-.080615.354558-.120923.600939-.120923.17288 0 .315738.021286.428576.063858.113873.04212.186337.103487.217396.184102m-.989144.416437c0 .062047.032609.110055.097827.144021.065218.033515.139753.050272.223606.050272.080746 0 .148033-.013813.201867-.04144.053828-.027626.080744-.072916.080746-.135869-.000002-.064763-.028988-.112091-.086959-.141982-.057973-.030344-.130437-.045516-.217393-.045517-.083853.000001-.154765.014494-.212736.043478-.057973.028533-.086958.070879-.086958.127037" font-size="2.10346055"/>
    <path d="m22.297487 27.744179.434789-.0197c.012422.043025.049172.077218.11025.10258.061077.02491.131471.037365.211183.037365.091098 0 .16822-.016078.231369-.048234.063147-.032609.094721-.081521.094722-.146739-.000001-.06114-.031575-.106882-.094722-.137227-.062113-.030797-.143376-.046195-.243792-.046196-.125262.000001-.237582.024231-.336961.07269l-.354042-.022418.223606-.51834h1.153742v.178667h-.822992l-.068325.169158c.09731-.021286.19669-.031929.298141-.03193.193583.000001.357664.030798.492243.092391.134576.061595.201865.141531.201867.239809-.000002.081974-.054351.155117-.163047.219428-.148036.087862-.353525.131793-.616467.131793-.210149 0-.381477-.024683-.513984-.074049-.132506-.049365-.211699-.115715-.23758-.199048" font-size="2.10346389"/>
    <path d="M16.146912 28.000345v-.200406h-.931691v-.16712l.987593-.632471h.366464v.631792h.282614v.167799h-.282614v.200406h-.422366m0-.368205v-.340352l-.523299.340352h.523299" font-size="2.10346723"/>
    <path d="M15.291336 21.19536v-.17731h1.492262v.138587c-.123193.05299-.248454.129076-.375783.22826-.127333.099185-.224643.20471-.291931.316576-.066255.111413-.098864.21105-.097827.298912h-.420814c.007244-.13768.071947-.278078.194101-.421194.123191-.143116.287271-.271059.492245-.383831h-.992253" font-size="2.10347009"/>
    <path d="M22.665601 21.463056c-.112839-.020832-.195139-.049365-.246899-.085598-.050727-.036683-.076088-.076765-.076088-.120244 0-.074275.059007-.135642.177022-.184104.119049-.048459.287789-.072688.50622-.07269.216359.000002.384064.024231.503115.07269.120083.048462.180126.109829.180127.184104-.000001.046196-.027434.08741-.0823.123642-.054868.035779-.131991.06318-.23137.0822.126295.022193.222052.054575.287273.097147.066252.042573.099378.091713.09938.147418-.000002.09194-.067291.166667-.201867.224186-.133544.057518-.311601.086277-.534172.086277-.207043 0-.379407-.023777-.51709-.071332-.162529-.056159-.243792-.133152-.243792-.230978 0-.053895.030538-.10326.091616-.148098.061077-.045289.157353-.080163.288825-.10462m.090064-.192255c-.000002.038044.024327.067709.072982.088995.04969.021286.115426.03193.197209.031929.082816.000001.14907-.010643.198761-.031929.049689-.021739.074534-.051631.074535-.089674-.000001-.035779-.024846-.064311-.074535-.085598-.048656-.021739-.113357-.032608-.194103-.032609-.083853.000001-.150625.01087-.200314.032609-.049691.02174-.074537.050499-.074535.086277m-.040373.42663c-.000002.052537.030538.093524.091616.122963.062112.029438.139236.044158.231371.044157.090062.000001.164597-.01404.223606-.042119.059007-.028533.088509-.06952.088511-.122963-.000002-.046648-.030023-.084012-.090064-.112092-.060044-.028532-.136132-.042799-.228265-.042799-.106628 0-.18634.016079-.239135.048234-.051762.032156-.077642.067029-.07764.104619" font-size="2.10347342"/>
    <path d="m29.300734 21.770157.422369-.02038c.010351.03759.037267.065444.080747.083559.043479.018117.100933.027174.172364.027174.090062 0 .166669-.018116.229818-.054348.063147-.036232.10352-.111413.121121-.225543-.109735.055706-.246901.08356-.4115.083559-.179093.000001-.333857-.030117-.464294-.090353-.129403-.060688-.194103-.139493-.194103-.236414 0-.100996.068324-.182291.204972-.243886.137684-.062046.312635-.09307.524855-.093071.230852.000001.420297.039177.568335.117527.148034.0779.222052.206297.222054.385191-.000002.182067-.077126.313407-.231371.394023-.154249.080616-.355082.120924-.602496.120924-.178058 0-.321953-.020607-.431687-.061821-.109733-.041666-.180127-.103714-.211184-.186141m.987597-.417121c0-.061593-.032609-.109374-.097827-.143343-.064185-.033966-.13872-.05095-.223607-.05095-.080748 0-.148037.01404-.201867.042119-.052798.027628-.079195.073144-.079195.136549 0 .064313.028986.111641.086958.141984.057972.029892.130437.044838.217395.044837.083853.000001.154248-.014492.211185-.043478.057971-.028985.086958-.071557.086958-.127718" font-size="2.10347676"/>
    <path d="M23.028762 39.000222c.220499.000001.392861.034421.517087.10326.148034.081522.22205.216711.222052.405568-.000002.188405-.074537.32382-.223605.406247-.123191.067935-.295035.101902-.515534.101902-.221535 0-.400108-.037138-.53572-.111412-.135613-.074728-.203419-.207653-.203419-.398775 0-.187498.074535-.322461.223606-.404888.123188-.067934.295034-.101901.515533-.101902m0 .158287c-.052796.000001-.099899.007474-.141306.022418-.041409.014494-.0735.040762-.096274.078804-.030022.049367-.045033.132473-.045031.249319-.000002.116848.013457.197236.040373.241167.026914.043478.060559.072463.100932.086956.041407.014493.08851.021739.141306.021739.052794 0 .099897-.007246.141307-.021739.041407-.014946.073498-.04144.096273-.079483.030021-.048913.045031-.131792.045032-.24864-.000001-.116846-.013458-.197008-.040373-.240488-.026917-.043929-.061078-.073141-.102486-.087635-.040373-.014944-.086959-.022417-.139753-.022418" font-size="2.10345864"/>
  </g>
</svg>