<?xml version="1.0"?>
<svg id="Layer_1_1_" style="enable-background:new 0 0 16 16;" version="1.1" viewBox="0 0 16 16"
    xml:space="preserve" xmlns="http://www.w3.org/2000/svg"
    xmlns:xlink="http://www.w3.org/1999/xlink"
    stroke-width="0.1px"
>
    <g fill="black">
        <path id="head" d="M12,5 V4 c0,-2,-2,-4,-4,-4 S4,2,4,4 v1 c0,2,2,4,4,4 S12,7,12,5"/>
        <path id="body" d="M12,9 H4 c-2,0-4,2-4,4 V16 H16 V11 C16,11,14,9,12,9 z"/>
    </g>
    <g fill="red" transform="translate(16,0) scale(-1,1)">
        <path id="head" d="M8,0 c-2,0,-4,2,-4,4 v1 c0,2,2,4,4,4" />
        <path id="body" d="M8,9 H4 c-2,0,-4,2,-4,4 V16 H8 z"/>
    </g>
</svg>